<svg width="15" height="15" viewBox="0 0 15 15" fill="none" xmlns="http://www.w3.org/2000/svg">
<path d="M9.44118 3.02069C9.65259 2.44935 10.4607 2.44935 10.6721 3.02069L10.9817 3.85723C11.4071 5.00686 12.3135 5.91326 13.4631 6.33866L14.2996 6.64821C14.871 6.85962 14.871 7.66772 14.2996 7.87914L13.4631 8.18869C12.3135 8.61408 11.4071 9.52049 10.9817 10.6701L10.6721 11.5067C10.4607 12.078 9.65259 12.078 9.44118 11.5067L9.13163 10.6701C8.70623 9.52049 7.79982 8.61408 6.6502 8.18869L5.81366 7.87914C5.24232 7.66772 5.24232 6.85962 5.81366 6.64821L6.6502 6.33866C7.79982 5.91326 8.70623 5.00685 9.13163 3.85723L9.44118 3.02069Z" fill="#9544FF"/>
<path opacity="0.4" d="M3.28899 1.91185C3.35946 1.7214 3.62882 1.7214 3.6993 1.91185L3.80248 2.19069C3.94428 2.5739 4.24641 2.87603 4.62962 3.01783L4.90847 3.12102C5.09891 3.19149 5.09892 3.46085 4.90847 3.53133L4.62962 3.63451C4.24641 3.77631 3.94428 4.07844 3.80248 4.46165L3.6993 4.7405C3.62882 4.93095 3.35946 4.93095 3.28899 4.7405L3.1858 4.46165C3.044 4.07844 2.74187 3.77631 2.35866 3.63451L2.07981 3.53133C1.88937 3.46086 1.88937 3.19149 2.07981 3.12102L2.35866 3.01783C2.74187 2.87603 3.044 2.5739 3.1858 2.19069L3.28899 1.91185Z" fill="#9544FF"/>
<path opacity="0.7" d="M3.15222 8.25998C3.26967 7.94256 3.71861 7.94256 3.83607 8.25998L4.00804 8.72472C4.24437 9.3634 4.74793 9.86696 5.38661 10.1033L5.85135 10.2753C6.16877 10.3927 6.16877 10.8417 5.85135 10.9591L5.38661 11.1311C4.74793 11.3674 4.24437 11.871 4.00804 12.5097L3.83607 12.9744C3.71861 13.2918 3.26967 13.2918 3.15222 12.9744L2.98024 12.5097C2.74391 11.871 2.24035 11.3674 1.60167 11.1311L1.13693 10.9591C0.819516 10.8417 0.819516 10.3927 1.13693 10.2753L1.60168 10.1033C2.24035 9.86696 2.74391 9.3634 2.98024 8.72472L3.15222 8.25998Z" fill="#9544FF"/>
</svg>
